HIERARCHY
ROOT Hips
{
	OFFSET 0.000000 0.000000 0.000000
	CHANNELS 6 Xposition Yposition Zposition Xrotation Yrotation Zrotation
	JOINT LeftUpLeg_virtual
	{
		OFFSET 0.000000 0.000000 0.000000
		CHANNELS 3 Xrotation Yrotation Zrotation
		JOINT LeftUpLeg
		{
			OFFSET 10.205400 -3.823500 0.155100
			CHANNELS 3 Xrotation Yrotation Zrotation
			JOINT LeftLeg
			{
				OFFSET 0.708757 -12.982077 0.567790
				CHANNELS 3 Xrotation Yrotation Zrotation
				JOINT LeftFoot
				{
					OFFSET -0.708756 -10.717838 -2.184338
					CHANNELS 3 Xrotation Yrotation Zrotation
					JOINT LeftToeBase
					{
						OFFSET 0.108149 -7.191104 7.560241
						CHANNELS 3 Xrotation Yrotation Zrotation
						JOINT LeftToe_End
						{
							OFFSET 0.070230 0.081724 4.490308
							CHANNELS 3 Xrotation Yrotation Zrotation
							End Site
							{
								OFFSET 0 0 0
							}
						}
					}
				}
			}
		}
	}
	JOINT RightUpLeg_virtual
	{
		OFFSET 0.000000 0.000000 0.000000
		CHANNELS 3 Xrotation Yrotation Zrotation
		JOINT RightUpLeg
		{
			OFFSET -10.205400 -3.823500 0.005500
			CHANNELS 3 Xrotation Yrotation Zrotation
			JOINT RightLeg
			{
				OFFSET -0.708756 -12.982134 0.610632
				CHANNELS 3 Xrotation Yrotation Zrotation
				JOINT RightFoot
				{
					OFFSET 0.708754 -10.717769 -1.945823
					CHANNELS 3 Xrotation Yrotation Zrotation
					JOINT RightToeBase
					{
						OFFSET -0.108140 -7.191069 7.372968
						CHANNELS 3 Xrotation Yrotation Zrotation
						JOINT RightToe_End
						{
							OFFSET -0.070227 0.081735 4.479403
							CHANNELS 3 Xrotation Yrotation Zrotation
							End Site
							{
								OFFSET 0 0 0
							}
						}
					}
				}
			}
		}
	}
	JOINT Spine_virtual
	{
		OFFSET 0.000000 0.000000 0.000000
		CHANNELS 3 Xrotation Yrotation Zrotation
		JOINT Spine
		{
			OFFSET 0.000000 6.876099 0.125700
			CHANNELS 3 Xrotation Yrotation Zrotation
			JOINT Spine1
			{
				OFFSET 0.000000 5.730043 0.104720
				CHANNELS 3 Xrotation Yrotation Zrotation
				JOINT Spine1_split
				{
					OFFSET 0.000000 5.730043 0.104720
					CHANNELS 3 Xrotation Yrotation Zrotation
					JOINT Spine2
					{
						OFFSET 0.000000 5.730043 0.104720
						CHANNELS 3 Xrotation Yrotation Zrotation
						JOINT Neck_virtual
						{
							OFFSET 0.000000 0.000000 0.000000
							CHANNELS 3 Xrotation Yrotation Zrotation
							JOINT Neck
							{
								OFFSET 0.000000 10.314075 0.188496
								CHANNELS 3 Xrotation Yrotation Zrotation
								JOINT Head
								{
									OFFSET 0.000000 7.643700 -2.377400
									CHANNELS 3 Xrotation Yrotation Zrotation
									JOINT HeadTop_End
									{
										OFFSET 0.000000 43.788605 -13.619600
										CHANNELS 3 Xrotation Yrotation Zrotation
										End Site
										{
											OFFSET 0 0 0
										}
									}
								}
							}
						}
						JOINT LeftShoulder_virtual
						{
							OFFSET 0.000000 0.000000 0.000000
							CHANNELS 3 Xrotation Yrotation Zrotation
							JOINT LeftShoulder
							{
								OFFSET 2.196100 4.412489 0.087492
								CHANNELS 3 Xrotation Yrotation Zrotation
								JOINT LeftShoulder_split
								{
									OFFSET 2.196100 4.412489 0.087492
									CHANNELS 3 Xrotation Yrotation Zrotation
									JOINT LeftArm
									{
										OFFSET 8.771219 -2.981674 -0.026999
										CHANNELS 3 Xrotation Yrotation Zrotation
										JOINT LeftForeArm
										{
											OFFSET 8.512804 0.000000 -0.000000
											CHANNELS 3 Xrotation Yrotation Zrotation
											JOINT LeftHand
											{
												OFFSET 18.484802 0.000000 -0.000000
												CHANNELS 3 Xrotation Yrotation Zrotation
												End Site
												{
													OFFSET 0 0 0
												}
											}
										}
									}
								}
							}
						}
						JOINT RightShoulder_virtual
						{
							OFFSET 0.000000 0.000000 0.000000
							CHANNELS 3 Xrotation Yrotation Zrotation
							JOINT RightShoulder
							{
								OFFSET -2.196100 4.412496 0.070690
								CHANNELS 3 Xrotation Yrotation Zrotation
								JOINT RightShoulder_split
								{
									OFFSET -2.196100 4.412496 0.070690
									CHANNELS 3 Xrotation Yrotation Zrotation
									JOINT RightArm
									{
										OFFSET -8.771282 -2.981682 -0.094208
										CHANNELS 3 Xrotation Yrotation Zrotation
										JOINT RightForeArm
										{
											OFFSET -8.494598 0.000000 0.000000
											CHANNELS 3 Xrotation Yrotation Zrotation
											JOINT RightHand
											{
												OFFSET -18.483803 0.000000 0.000001
												CHANNELS 3 Xrotation Yrotation Zrotation
												End Site
												{
													OFFSET 0 0 0
												}
											}
										}
									}
								}
							}
						}
					}
				}
			}
		}
	}
}
MOTION
Frames: 9
Frame Time: 0.03333333
-9.662667 34.727615 -5.987547 0.000000 0.000000 0.000000 -173.739044 -52.854442 -168.130885 -107.065292 -21.577800 3.774080 87.559364 -2.554705 -35.213272 50.469456 -12.124276 -19.775133 -3.815199 0.169381 -0.717376 0.000000 0.000000 0.000000 -174.359020 -49.753652 -169.153514 -23.119576 34.398151 3.187000 39.520636 11.798399 -4.190995 -6.618076 13.499020 4.285632 -1.022252 1.747453 2.863100 0.000000 0.000000 0.000000 -170.895281 -52.728705 -164.253086 18.659583 2.750369 0.420468 7.076716 0.091531 -0.029123 0.892056 -2.722590 0.841116 0.000000 0.000000 0.000000 10.554647 0.288532 -0.656080 4.683371 38.498662 5.780906 9.448282 47.425439 -31.377602 0.000000 0.000000 0.000000 9.620711 -0.206321 -0.518448 -2.507925 -13.068655 11.144398 3.168872 0.745295 -1.784060 -55.507742 -48.227672 -41.579026 -96.453561 -26.327879 -90.597398 0.000000 0.000000 0.000000 8.023622 -0.322096 -0.562496 -4.079263 20.458669 4.249738 4.081443 -1.736635 3.919346 -54.632306 15.175152 25.619427 128.576044 41.616110 -124.024706 0.000000 0.000000 0.000000 
-10.473200 35.146049 -6.709755 0.000000 0.000000 0.000000 -172.498231 -49.710909 -166.035779 -111.990575 -18.807681 5.292476 85.626892 -4.368407 -33.969027 48.325016 -16.368379 -25.163834 -9.600470 -0.113549 1.388963 0.000000 0.000000 0.000000 -173.433584 -45.161494 -167.357858 -19.484677 36.275965 2.580138 39.054151 11.919111 -3.767279 -7.928576 14.442070 3.279120 -3.195048 1.670490 2.866446 0.000000 0.000000 0.000000 -170.924555 -49.381837 -163.952312 19.330094 3.444253 0.457741 7.601703 0.351634 -0.369704 0.603788 -2.599014 0.883989 0.000000 0.000000 0.000000 11.207512 0.501210 -1.133516 6.071876 38.917977 5.138714 8.707797 48.409471 -31.695066 0.000000 0.000000 0.000000 10.318082 0.018329 -0.832445 -1.996403 -12.666297 15.743284 3.300999 0.156948 -1.722354 -66.670740 -45.027401 -47.006526 -95.973952 -27.871716 -90.366169 0.000000 0.000000 0.000000 8.574198 -0.181243 -0.945601 -3.034425 21.071832 0.152498 4.351090 -1.964814 3.909260 -61.616906 14.078313 25.005070 130.435030 41.259831 -126.645081 0.000000 0.000000 0.000000 
-11.121730 35.559261 -7.341719 0.000000 0.000000 0.000000 -171.407682 -47.149096 -163.866852 -116.524612 -17.384075 6.330910 85.658604 -7.302544 -32.438539 47.888413 -20.336642 -28.924164 -13.269418 -0.561540 3.355844 0.000000 0.000000 0.000000 -172.804332 -41.577469 -165.825655 -15.374664 37.800937 1.023953 38.416382 11.894804 -3.064340 -8.954184 15.051843 2.674364 -5.343941 1.557389 2.931343 0.000000 0.000000 0.000000 -170.872482 -46.649656 -163.395692 19.864012 3.973416 0.488305 8.011884 0.494381 -0.695352 0.489127 -2.633390 0.973916 0.000000 0.000000 0.000000 11.719438 0.591596 -1.567877 7.501565 39.249972 4.268145 8.089688 49.247921 -32.115652 0.000000 0.000000 0.000000 10.906773 0.134720 -1.134566 -1.552802 -12.324497 20.213769 3.682321 -0.321890 -1.737932 -75.163056 -41.156480 -51.107895 -95.476510 -29.339245 -89.940313 0.000000 0.000000 0.000000 8.990794 -0.140532 -1.291085 -1.948597 21.564273 -4.012518 4.634984 -2.285713 3.759665 -67.610622 12.267226 23.343631 132.203502 41.337794 -129.007329 0.000000 0.000000 0.000000 
-11.589410 35.856506 -7.826767 0.000000 0.000000 0.000000 -170.519825 -45.410158 -161.851359 -119.870202 -16.839850 6.403515 86.602707 -9.156307 -31.509650 47.587052 -21.493029 -30.302732 -12.675665 -0.640321 4.029661 0.000000 0.000000 0.000000 -172.416555 -39.123645 -164.478742 -11.401866 38.926279 -1.235468 37.935755 11.838763 -2.090726 -9.896940 15.318904 2.566554 -6.882867 1.464915 2.994533 0.000000 0.000000 0.000000 -170.655623 -44.650241 -162.360618 20.313362 4.327765 0.458716 8.308529 0.509882 -0.971052 0.344346 -2.800136 0.951143 0.000000 0.000000 0.000000 12.097663 0.572386 -1.921450 8.950349 39.483876 3.179564 7.531453 49.938580 -32.557306 0.000000 0.000000 0.000000 11.349818 0.150615 -1.382229 -1.160772 -12.130292 24.421635 4.201418 -0.784811 -1.834502 -81.252251 -37.431107 -53.766628 -95.154405 -30.790916 -89.628092 0.000000 0.000000 0.000000 9.235441 -0.175127 -1.574380 -0.885901 21.990684 -7.907729 4.953789 -2.502433 3.725437 -72.615976 9.790142 20.721483 134.164491 41.605093 -131.368402 0.000000 0.000000 0.000000 
-11.899576 36.002213 -8.124710 0.000000 0.000000 0.000000 -169.919261 -44.249073 -160.023956 -121.451022 -16.815345 5.940674 86.654330 -9.195097 -31.567598 45.925188 -20.078972 -30.736773 -10.153982 -0.421669 3.786797 0.000000 0.000000 0.000000 -172.213275 -37.869301 -163.221946 -8.487741 39.789414 -3.588826 38.107586 11.879230 -1.008649 -11.303625 15.232410 2.828249 -7.169342 1.466190 3.051421 0.000000 0.000000 0.000000 -170.208300 -43.348827 -160.735142 20.774355 4.448076 0.361411 8.457383 0.405663 -1.196595 0.150791 -2.951063 0.948280 0.000000 0.000000 0.000000 12.345565 0.479074 -2.189419 10.410832 39.640519 1.938975 6.960195 50.405983 -32.888939 0.000000 0.000000 0.000000 11.645752 0.086507 -1.586318 -0.805147 -12.075164 28.151420 4.457152 -1.319474 -1.957016 -85.343890 -34.616614 -55.245572 -95.082012 -32.356652 -89.672727 0.000000 0.000000 0.000000 9.339078 -0.258476 -1.789818 0.052211 22.342263 -11.157277 5.307763 -2.702809 3.871380 -76.662255 6.750837 17.445780 136.238218 41.938758 -133.732194 0.000000 0.000000 0.000000 
-12.072664 36.015987 -8.237045 0.000000 0.000000 0.000000 -169.760554 -43.275881 -158.540958 -121.397747 -17.316246 5.223191 85.559539 -8.442692 -32.433522 43.233803 -17.714785 -31.244970 -9.445954 -0.301582 3.518628 0.000000 0.000000 0.000000 -172.088843 -37.784299 -162.030023 -7.059851 40.599474 -5.572356 39.235414 12.023127 -0.005812 -13.404834 14.763751 3.276182 -6.226998 1.602261 3.147021 0.000000 0.000000 0.000000 -169.746498 -42.809040 -158.908203 21.246190 4.366990 0.160732 8.444002 0.215279 -1.388715 0.094160 -3.132296 0.977891 0.000000 0.000000 0.000000 12.458047 0.346324 -2.398791 11.765600 39.713910 0.739870 6.284475 50.645286 -32.995073 0.000000 0.000000 0.000000 11.780201 -0.037023 -1.775995 -0.489926 -12.096163 31.253617 4.284588 -1.701013 -2.138448 -87.871483 -32.924770 -55.859398 -95.213090 -34.061549 -90.062717 0.000000 0.000000 0.000000 9.327493 -0.360714 -1.953875 0.785685 22.604199 -13.552570 5.686723 -2.868604 4.208935 -79.889922 3.572730 13.842947 138.275581 42.260238 -136.008669 0.000000 0.000000 0.000000 
-12.126211 35.903324 -8.110132 0.000000 0.000000 0.000000 -169.991729 -42.805079 -157.435164 -120.954126 -18.241781 4.928981 84.648119 -8.614612 -33.446671 41.354091 -16.533088 -32.062971 -10.859119 -0.433396 3.748143 0.000000 0.000000 0.000000 -172.018041 -38.712935 -160.841652 -7.137678 41.486309 -7.117657 41.199541 12.332111 0.812848 -15.936025 14.023770 3.986992 -4.773372 1.840558 3.306491 0.000000 0.000000 0.000000 -169.463646 -43.131162 -157.236200 21.674588 4.118200 -0.139349 8.279587 -0.038409 -1.553497 0.119726 -3.304086 1.130639 0.000000 0.000000 0.000000 12.435475 0.178202 -2.558436 12.822748 39.735076 -0.256249 5.612272 50.719359 -32.912052 0.000000 0.000000 0.000000 11.768576 -0.220977 -1.963807 -0.206014 -12.168136 33.667013 3.647521 -2.044116 -2.207530 -89.134003 -32.280669 -55.828163 -95.367370 -35.859118 -90.596421 0.000000 0.000000 0.000000 9.223828 -0.486684 -2.068483 1.267455 22.724821 -14.980003 6.018892 -3.184126 4.474434 -82.475313 0.560003 10.460415 140.213170 42.448051 -138.199712 0.000000 0.000000 0.000000 
-12.118167 35.743263 -7.749084 0.000000 0.000000 0.000000 -170.638698 -42.931881 -156.870061 -121.047645 -19.789365 5.612815 84.927132 -10.466644 -34.444975 41.742035 -17.391543 -32.780444 -12.460522 -0.785111 4.437090 0.000000 0.000000 0.000000 -172.046823 -40.286525 -159.682159 -8.398484 42.385661 -8.191417 43.595407 12.734140 1.332345 -18.253944 12.997520 5.023101 -3.570226 2.109204 3.510462 0.000000 0.000000 0.000000 -169.432008 -44.157234 -155.940145 22.023964 3.710371 -0.520123 7.934009 -0.355659 -1.691861 0.378422 -3.600734 1.269668 0.000000 0.000000 0.000000 12.248562 -0.040060 -2.671913 13.426863 39.744068 -0.869345 5.048997 50.713670 -32.690720 0.000000 0.000000 0.000000 11.626176 -0.488379 -2.137816 0.033537 -12.237343 35.381934 2.782012 -2.232144 -2.102829 -89.684304 -32.396086 -55.516983 -95.435453 -37.515880 -91.096507 0.000000 0.000000 0.000000 9.026249 -0.670224 -2.124168 1.496038 22.622030 -15.552399 6.281028 -3.450217 4.594427 -84.493511 -1.984237 7.653387 142.124489 42.335374 -140.436353 0.000000 0.000000 0.000000 
-12.060840 35.542583 -7.167742 0.000000 0.000000 0.000000 -171.592780 -43.644349 -156.835992 -121.625780 -21.817484 7.056638 86.474935 -13.325129 -35.379516 43.666625 -18.785655 -32.663508 -12.054501 -1.046380 4.749598 0.000000 0.000000 0.000000 -172.368717 -42.244911 -158.847018 -10.335300 43.020606 -8.948395 45.737300 13.055552 1.618483 -19.912050 11.778558 6.291564 -2.412251 2.379862 3.670705 0.000000 0.000000 0.000000 -169.773641 -45.650597 -155.333747 22.160253 3.223494 -0.933947 7.440619 -0.696955 -1.792806 0.788995 -4.072071 1.333242 0.000000 0.000000 0.000000 11.928212 -0.314911 -2.749330 13.446585 39.780326 -1.000292 4.707704 50.723471 -32.442760 0.000000 0.000000 0.000000 11.370373 -0.827498 -2.265826 0.206847 -12.231990 36.524843 1.838706 -2.212795 -1.751174 -90.223657 -32.875408 -55.235890 -95.266440 -38.813738 -91.280663 0.000000 0.000000 0.000000 8.718269 -0.926863 -2.125205 1.515217 22.307219 -15.424480 6.408056 -3.737889 4.716676 -86.017422 -3.855384 5.771348 143.950007 41.895704 -142.636575 0.000000 0.000000 0.000000 
